<svg width="368" height="298" viewBox="0 0 368 298" fill="none" xmlns="http://www.w3.org/2000/svg">
<path d="M69.9719 244.04C94.2646 268.333 127.892 283.403 165.006 283.403V292.625C165.006 294.537 166.58 295.999 168.38 295.999C246.881 294.2 310.087 230.994 311.887 152.492C311.887 150.58 310.425 149.118 308.513 149.118H299.291C299.291 74.8906 239.121 14.7212 164.893 14.7212V5.49899C164.893 3.58706 163.319 2.125 161.519 2.125C123.618 3.02473 89.2037 18.3201 63.5614 42.7253C62.2118 43.9624 62.2118 46.2118 63.5614 47.4489L70.0844 53.9719C45.7917 78.2646 30.7212 111.892 30.7212 149.006H21.499C19.5871 149.006 18.125 150.58 18.125 152.38C19.0247 190.393 34.3201 224.808 58.7253 250.45C59.9624 251.8 62.0993 251.8 63.4489 250.45L69.9719 244.04Z" fill="#FFE84D" stroke="white" stroke-width="2" stroke-miterlimit="10" stroke-linecap="round" stroke-linejoin="round"/>
<path d="M227.988 139.223L238.222 167.002L221.689 176.112L252.28 184.097L266.114 174.087C268.925 172.063 270.05 168.464 269.038 165.202L261.278 140.685L227.988 139.223Z" fill="white" stroke="black" stroke-width="1.2" stroke-miterlimit="10" stroke-linecap="round" stroke-linejoin="round"/>
<path d="M221.352 137.422L229.899 160.477C230.911 163.177 229.787 166.326 227.2 167.675L215.166 174.311L248.568 179.709L260.602 171.499C262.739 170.037 263.751 167.338 262.852 164.864L254.642 138.996L221.352 137.422Z" fill="#FFE84D" stroke="black" stroke-width="1.2" stroke-miterlimit="10" stroke-linecap="round" stroke-linejoin="round"/>
<path d="M229.674 164.977C229.112 166.101 228.325 167.001 227.2 167.676L215.166 174.311L248.568 179.71L260.602 171.5C261.615 170.825 262.289 169.925 262.739 168.8L229.674 164.977Z" fill="black"/>
<path d="M349 16.5237L342.814 12.25L333.367 16.1863L163.206 22.0346C160.057 22.147 157.582 24.5088 157.132 27.5454L156.795 30.4695L146.448 114.819L139.025 131.464L141.05 133.489C142.849 135.288 145.211 136.413 147.798 136.75L331.68 154.52C335.166 154.857 338.203 152.27 338.54 148.896L340.565 127.978L350.687 25.6335L351.137 21.0224C351.474 19.1104 350.574 17.4234 349 16.5237Z" fill="white" stroke="black" stroke-width="1.2" stroke-miterlimit="10" stroke-linecap="round" stroke-linejoin="round"/>
<path d="M336.853 152.606L322.345 139.11L142.849 123.027L139.138 131.462L141.162 133.487C142.962 135.286 145.323 136.411 147.91 136.748L331.792 154.518C333.704 154.743 335.616 153.956 336.853 152.606Z" fill="black"/>
<path d="M334.492 123.708L140.263 110.549L150.61 26.1993L344.614 21.3633L334.492 123.708Z" fill="white"/>
<path d="M310.974 122.604C310.706 125.292 308.352 127.282 305.657 127.097L161.859 117.254C158.992 117.058 156.88 114.491 157.24 111.64L165.959 42.513C166.272 40.0326 168.369 38.1645 170.869 38.139L313.945 36.6781C316.922 36.6477 319.266 39.2098 318.972 42.1725L310.974 122.604Z" fill="white" stroke="black" stroke-width="1.2"/>
<path d="M317.518 54.6823L164.5 53.1772L165.932 42.4761C166.261 40.0122 168.351 38.1647 170.836 38.1393L313.881 36.6787C316.881 36.6481 319.232 39.2483 318.901 42.2303L317.518 54.6823Z" fill="black"/>
<path d="M344.614 21.3586L150.609 26.1946L150.947 23.2705C151.284 20.2339 153.871 17.8721 157.02 17.7596L340.115 11.574C343.039 11.4615 345.288 13.9358 345.063 16.8599L344.614 21.3586Z" fill="#FFE84D"/>
<path d="M334.492 123.709L140.262 110.551L138.126 127.983C137.788 130.682 139.7 133.044 142.399 133.269L325.494 150.139C328.981 150.476 332.017 147.89 332.355 144.516L334.492 123.709Z" fill="#FFE84D"/>
<path d="M340.115 11.4646L157.02 17.6503C153.871 17.7627 151.397 20.1245 150.947 23.1611L150.609 26.0852L140.262 110.435L138.126 127.867C137.788 130.566 139.7 132.928 142.399 133.153L325.494 150.023C328.981 150.36 332.017 147.774 332.355 144.4L334.379 123.481L344.501 21.1367L344.951 16.5256C345.288 13.8264 343.039 11.3522 340.115 11.4646Z" stroke="black" stroke-width="1.2" stroke-miterlimit="10" stroke-linecap="round" stroke-linejoin="round"/>
<path d="M230.685 128.996C230.46 130.908 228.773 132.258 226.861 132.033C224.949 131.808 223.599 130.233 223.824 128.321C224.049 126.522 225.736 125.06 227.536 125.285C229.56 125.51 230.91 127.197 230.685 128.996Z" stroke="white" stroke-width="1.2" stroke-miterlimit="10" stroke-linecap="round" stroke-linejoin="round"/>
<path d="M177.376 46.2982C177.211 47.6441 176.018 48.5889 174.672 48.4239C173.326 48.2589 172.381 47.1453 172.546 45.7995C172.71 44.5329 173.904 43.5089 175.17 43.6734C176.595 43.8388 177.54 45.0316 177.376 46.2982Z" fill="#FFE84D"/>
<path d="M184.249 46.3334C184.084 47.6792 182.891 48.624 181.545 48.4591C180.199 48.2941 179.254 47.1805 179.419 45.8347C179.583 44.568 180.777 43.544 182.043 43.7086C183.468 43.8739 184.413 45.0667 184.249 46.3334Z" fill="white"/>
<path d="M191.121 46.3685C190.956 47.7144 189.763 48.6592 188.417 48.4942C187.071 48.3293 186.126 47.2157 186.291 45.8698C186.456 44.6032 187.649 43.5792 188.915 43.7437C190.34 43.9091 191.285 45.1019 191.121 46.3685Z" fill="white"/>
<path d="M106.186 201.302L181.425 167.562L322.795 185.22L284.22 232.006L106.186 201.302Z" fill="white" stroke="black" stroke-width="1.2" stroke-miterlimit="10" stroke-linecap="round" stroke-linejoin="round"/>
<path d="M322.796 185.219L322.683 190.73L284.22 239.315V232.005L322.796 185.219Z" fill="white" stroke="black" stroke-width="1.2" stroke-miterlimit="10" stroke-linecap="round" stroke-linejoin="round"/>
<path d="M106.186 201.305V207.265L284.22 239.318V232.008L106.186 201.305Z" fill="#FFE84D" stroke="black" stroke-width="1.2" stroke-miterlimit="10" stroke-linecap="round" stroke-linejoin="round"/>
<path d="M297.265 195.116C296.478 194.778 295.691 194.328 294.903 193.766C292.767 192.304 291.304 190.729 290.405 189.492C288.943 190.842 287.481 192.191 286.019 193.541L177.714 178.695C176.476 178.583 175.239 178.695 174.115 179.258L166.917 182.744L166.579 181.057C160.844 182.969 155.108 184.769 149.372 186.681C148.922 187.805 148.247 188.93 147.46 190.279C146.785 191.404 146.111 192.304 145.436 193.204L145.323 193.316L145.211 193.429C144.649 194.328 145.098 195.565 146.223 195.678L276.684 216.597C277.584 216.709 278.596 216.709 279.383 216.372C279.608 216.484 279.833 216.372 280.058 216.147C280.845 215.809 281.632 215.359 282.195 214.685L298.052 197.59C299.065 196.69 298.502 195.228 297.265 195.116Z" fill="#FFE84D" stroke="black" stroke-width="1.2" stroke-miterlimit="10" stroke-linecap="round" stroke-linejoin="round"/>
<path d="M282.308 214.688L298.165 197.593C298.953 196.693 298.503 195.231 297.266 195.006H297.153C296.478 194.669 295.691 194.219 294.791 193.657C292.655 192.194 291.193 190.62 290.293 189.383C288.831 190.732 287.369 192.082 285.907 193.432C281.97 197.143 278.034 200.742 274.098 204.453V206.59C274.435 207.827 274.885 209.289 275.672 210.864C276.797 213.226 278.259 215.138 279.384 216.375C279.608 216.487 279.833 216.375 280.058 216.15C280.958 215.925 281.745 215.363 282.308 214.688Z" fill="white" stroke="black" stroke-width="1.2" stroke-miterlimit="10" stroke-linecap="round" stroke-linejoin="round"/>
<path d="M276.233 205.463L290.404 191.742C291.304 190.842 290.854 189.268 289.504 189.155L177.713 174.422C176.588 174.31 175.351 174.422 174.226 174.984L150.159 186.119C148.809 186.793 149.034 188.818 150.608 189.043L270.947 207.262C272.859 207.375 274.771 206.812 276.233 205.463Z" fill="white" stroke="black" stroke-width="1.2" stroke-miterlimit="10" stroke-linecap="round" stroke-linejoin="round"/>
<path d="M116.084 160.254C120.133 155.981 152.636 145.184 162.87 157.668L164.444 159.355L120.808 182.523" fill="#FFE84D"/>
<path d="M189.523 178.702C194.584 179.151 196.384 173.866 195.259 171.166C192.785 164.981 172.204 146.311 128.117 167.68L140.263 152.272C121.706 131.916 54.4515 174.09 29.0342 204.906C30.9461 209.405 32.9705 213.904 35.2198 218.177L46.6914 220.427L67.835 246.294L69.9719 244.157C75.2578 249.443 81.106 254.391 87.1792 258.778C107.648 245.057 125.755 245.282 141.5 237.859C166.58 226.05 171.529 207.38 165.006 204.119C159.607 201.532 129.691 221.551 124.855 210.754C122.269 197.708 161.632 176.452 189.523 178.702Z" fill="#FFE84D"/>
<path d="M165.119 204.002C164.669 203.777 164.107 203.777 163.544 203.777C165.119 221.772 128.455 242.353 118.445 245.165C126.655 242.916 134.416 241.116 141.613 237.742C166.693 225.933 171.529 207.151 165.119 204.002Z" fill="white"/>
<path d="M195.259 171.048C194.922 170.373 194.36 169.473 193.572 168.461C156.571 168.573 132.278 197.702 132.278 197.702C144.65 187.13 169.842 177.121 189.411 178.695C194.585 179.033 196.384 173.747 195.259 171.048Z" fill="white"/>
<path d="M162.868 157.665L162.756 157.553C159.944 154.067 155.446 152.492 150.272 151.93C148.36 153.954 146.111 155.978 143.412 158.115C138.688 161.827 134.189 164.526 130.141 166.55C143.187 160.59 153.983 158.115 162.868 157.665Z" fill="white"/>
<path d="M94.1514 165.539C99.5497 166.101 107.197 167.451 115.632 171.05C121.818 173.749 126.654 176.898 130.253 179.597" stroke="black" stroke-width="1.2" stroke-miterlimit="10" stroke-linecap="round" stroke-linejoin="round"/>
<path d="M87.2906 258.659C87.403 258.659 87.403 258.547 87.5155 258.434C90.8895 253.486 64.3474 193.766 33.5317 199.839C31.9572 201.526 30.4951 203.213 29.1455 204.9C36.1184 221.995 46.2404 237.403 58.8366 250.562C60.0737 251.911 62.2106 251.911 63.5602 250.562L70.0832 244.039C75.3691 249.325 81.1049 254.273 87.2906 258.659Z" fill="black"/>
<path d="M128.117 167.563C172.203 146.307 192.785 164.864 195.259 171.05C196.384 173.749 194.584 179.035 189.523 178.585C161.632 176.336 122.268 197.592 124.968 210.526C129.804 221.322 159.72 201.303 165.118 203.89C171.641 207.039 166.693 225.821 141.613 237.63C125.98 244.94 107.985 244.828 87.7412 258.211" stroke="black" stroke-width="1.2" stroke-miterlimit="10" stroke-linecap="round" stroke-linejoin="round"/>
<path d="M116.083 160.25C120.132 155.977 152.635 145.18 162.869 157.664" stroke="black" stroke-width="1.2" stroke-miterlimit="10" stroke-linecap="round" stroke-linejoin="round"/>
<path d="M29.709 204.901C55.3513 172.511 122.044 132.36 140.263 152.154" stroke="black" stroke-width="1.2" stroke-miterlimit="10" stroke-linecap="round" stroke-linejoin="round"/>
<path d="M224.725 192.194L183.225 186.233L189.523 182.859L230.123 188.483L224.725 192.194Z" fill="black"/>
<path d="M251.38 196.017L237.547 193.993L242.72 190.281L256.216 192.193L251.38 196.017Z" fill="black"/>
<path d="M165.006 14.6088V5.49899C165.006 3.58706 163.431 2.125 161.632 2.125C123.618 3.02473 89.2037 18.3201 63.5614 42.7253C62.2118 43.9624 62.2118 46.2118 63.5614 47.4489L70.0844 53.9719C45.7917 78.2646 30.7212 111.892 30.7212 149.006H21.499C19.5871 149.006 18.125 150.58 18.125 152.38C19.0247 190.394 34.3201 224.808 58.7253 250.45C59.9624 251.8 62.0993 251.8 63.4489 250.45L69.9719 243.927C94.2646 268.22 127.892 283.291 165.006 283.291V292.513C165.006 294.425 166.58 295.887 168.38 295.887" stroke="white" stroke-width="2" stroke-miterlimit="10" stroke-linecap="round" stroke-linejoin="round"/>
<path d="M236.087 74.4697L237.309 63.2109C235.871 63.2149 234.437 63.3663 233.03 63.6629L231.875 74.4056C233.271 74.1734 234.698 74.1952 236.087 74.4697V74.4697Z" fill="black"/>
<path d="M223.357 79.4328L217.271 74.9961C216.439 76.3177 215.73 77.7134 215.155 79.1653L220.894 83.3961C221.525 81.9656 222.354 80.6313 223.357 79.4328Z" fill="black"/>
<path d="M219.843 86.348L212.669 85.1606C212.528 86.716 212.368 88.281 212.516 89.8358L219.449 90.9977C219.361 89.437 219.493 87.8716 219.843 86.348Z" fill="black"/>
<path d="M229.237 75.1326L225.789 66.5508C224.494 67.3398 223.273 68.2447 222.142 69.2545L225.402 77.4084C226.554 76.4547 227.847 75.6869 229.237 75.1326Z" fill="black"/>
<path d="M250.235 89.7638C250.335 88.9143 250.385 88.0597 250.385 87.2044L245.839 87.0547C245.897 88.6662 245.716 90.2775 245.304 91.8363L249.831 92.0155C249.997 91.2898 250.126 90.5561 250.216 89.8172L250.235 89.7638Z" fill="black"/>
<path d="M219.826 93.6328L214.817 96.505C215.327 97.8541 215.983 99.1436 216.772 100.351L221.434 97.7138C220.69 96.445 220.147 95.0682 219.826 93.6328V93.6328Z" fill="black"/>
<path d="M235.577 102.873L237.307 107.2C238 106.931 238.675 106.621 239.329 106.269V106.269C239.996 105.908 240.64 105.508 241.26 105.071L239.511 100.723C238.322 101.644 236.994 102.37 235.577 102.873Z" fill="black"/>
<path d="M241.666 98.7066L245.266 101.359C245.816 100.699 246.326 100.006 246.793 99.2842C247.197 98.6577 247.568 98.0105 247.905 97.3453L244.279 94.7031C243.608 96.1578 242.727 97.5066 241.666 98.7066V98.7066Z" fill="black"/>
<path d="M223.027 99.8477L220.219 104.282C221.271 105.174 222.441 105.917 223.695 106.491L226.338 102.353C225.093 101.723 223.972 100.874 223.027 99.8477Z" fill="black"/>
<path d="M228.764 103.258L228.259 108.058C228.884 108.187 229.516 108.276 230.152 108.326H230.174C230.922 108.38 231.674 108.38 232.423 108.326L232.958 103.512C231.556 103.684 230.135 103.598 228.764 103.258Z" fill="black"/>
</svg>
